<?xml version="1.0" encoding="utf-8"?>
<!-- Generator: Adobe Illustrator 16.0.3, SVG Export Plug-In . SVG Version: 6.00 Build 0)  -->
<!DOCTYPE svg PUBLIC "-//W3C//DTD SVG 1.1//EN" "http://www.w3.org/Graphics/SVG/1.1/DTD/svg11.dtd">
<svg version="1.1" id="Layer_1" xmlns="http://www.w3.org/2000/svg" xmlns:xlink="http://www.w3.org/1999/xlink" x="0px" y="0px"
	 width="239.8px" height="291.3px" viewBox="0 0 239.8 291.3" style="enable-background:new 0 0 239.8 291.3;" xml:space="preserve"
	>
<g>
	<g>
		<defs>
			<path id="SVGID_1_" d="M225.1,74l-21.5,0.2l-35.1,7.6l2.3-5.9l4.3-9l-0.1-4.5l-24.7-6.3L113,52.7L79.6,60l-0.4,6.4l8,16.4
				l-12,2.4l-31.9-6.5l-28.7,0l-8.4,2.7l-2.5,9.5l13.9,42.6l10.2,13.9l-3.4,28.2l4.3,19.7l10.7,24.5L36.8,232L34,255.9l3.5,24.3
				l9.4,6l20.1-6.2l16.5-10.8L98,258.1l17.5,2.4l13-1.9l18-3.9l5.6,5.1l29.6,12.4l22.5,0.5l9.5-5.7l1.3-8.9l-8.6-39.3l-3.5-11.8
				l4.4-20.7l2.4-22l-3.6-20.7L221,125L233,98.2l-1.3-18.5L225.1,74z M134.8,74.1c-3.1,0.7-6.3-1.7-7.1-5.2c-0.8-3.6,1.1-7,4.3-7.7
				c3.1-0.7,6.3,1.7,7.1,5.2C139.8,70,137.9,73.4,134.8,74.1z"/>
		</defs>
		<clipPath id="SVGID_2_">
			<use xlink:href="#SVGID_1_"  style="overflow:visible;"/>
		</clipPath>
		<g style="clip-path:url(#SVGID_2_);">
			<path style="fill:#F5CE29;" d="M91.2,57c-3.5,0.5-8.3,0.4-11.5,2.1c-0.7,0.4-1.1,1.2-1.3,2.1l79.1-3.1
				c-6.7-0.8-13.3-1.8-19.9-2.8c-3.9-0.6-7.4-1.9-11.2-3c-3.9-1.1-6.8,0.4-10.7,0.5C107.4,53,99.5,55.9,91.2,57z"/>
			<path style="fill:#188241;" d="M172.6,59.9c-2.8-0.8-5.7-0.9-8.6-1.1c-2.2-0.2-4.3-0.4-6.5-0.7l-79.1,3.1c-0.4,1.9,0,4.4,0.3,5.7
				c0.5,2.8,3.4,5.8,5,8.8l87.9-3.5c1-0.7,1.9-1.2,2.9-1.6C174.2,68,175.3,60.7,172.6,59.9z"/>
			<path style="fill:#67BBD5;" d="M223.9,72.9c-7.7-0.8-16.3-0.1-23.9,1.3c-4,0.8-8,1.9-12.1,2.4c-3.1,0.4-8.5-0.2-11.1,1.8
				c-4.2,3.2-9.8-2.8-5.6-6c0.1-0.1,0.2-0.1,0.3-0.2l-87.9,3.5c1.1,2,1.6,4.1,0.4,6.1c-2.6,4.4-9.3,5.9-13.9,4.5
				c-2.9-0.9-5.4-2.5-8.5-3.3c-3.8-1-7.4-2.8-11.3-3.2c-1-0.1-1.8-0.5-2.4-1.1c-3.6-0.7-7.4-0.9-11-1.2l-21.6,0.9
				c-2.6,0.4-5.2,1.1-7.3,2.3c-1,0.6-2.8,2.1-4.3,3.8c-0.1,0.8-0.3,1.7-0.4,2.5c0,0.4-0.1,0.7-0.2,1c0.4,1.8,0.9,3.7,1.3,5.5
				l228.2-9.1C231.9,78.7,229.6,73.5,223.9,72.9z"/>
			<path style="fill:#5D2B79;" d="M4.4,93.6C4.7,95,5,96.5,5.1,98c0.4,3.5,0.5,6.9,2,10.1l225-8.9c0.1-0.8,0.2-1.6,0.3-2.4
				c0.3-3.1,0.7-7.8,0.2-12.3L4.4,93.6z"/>
			<path style="fill:#D11A73;" d="M7.1,108.1c0.2,0.4,0.4,0.8,0.6,1.2c2.4,4.1,4.3,8.7,5.9,13.2L228,114c1.9-4.8,3.3-9.8,4.1-14.8
				L7.1,108.1z"/>
			<path style="fill:#F5CE29;" d="M13.6,122.5c0.1,0.4,0.2,0.7,0.4,1.1c1.3,0.3,2.4,1.3,2.9,2.9c1,3.7,3.2,7.1,5.5,10.3l197.7-7.9
				c3.1-4.6,5.8-9.7,7.9-15L13.6,122.5z"/>
			<path style="fill:#188241;" d="M22.4,136.9c3.2,4.5,6.5,9,6.8,14.4l181.1-7.2c1.1-5,4.9-8.3,8.2-12.7c0.6-0.8,1.1-1.5,1.7-2.3
				L22.4,136.9z"/>
			<path style="fill:#67BBD5;" d="M210.3,144.1l-181.1,7.2c0,0.1,0,0.1,0,0.2c0.2,4.6-1.1,9-1.3,13.6c0,0.3,0,0.6,0,0.9l184-7.3
				c-1.1-3.4-1.5-7-1.8-10.6C209.9,146.6,210,145.3,210.3,144.1z"/>
			<path style="fill:#5D2B79;" d="M211.8,158.7l-184,7.3c-0.2,4.8-0.5,9.9-0.3,14.7l183.3-7.3c0.5-4.7,0.9-9.5,1.2-14.2
				C211.9,159,211.9,158.9,211.8,158.7z"/>
			<path style="fill:#D11A73;" d="M27.5,180.7C27.5,180.7,27.5,180.7,27.5,180.7c0.2,4.8,1.1,9.8,2.1,14.6l178.3-7.1
				c0.4-1.5,0.8-3,1.1-4.5c0.8-3.4,1.3-6.8,1.7-10.2L27.5,180.7z"/>
			<path style="fill:#F5CE29;" d="M29.6,195.3c0.1,0.6,0.2,1.2,0.4,1.8c0.9,4.4,2.9,8.5,4.6,12.7l170.3-6.8c0.3-5,1.7-9.9,3-14.8
				L29.6,195.3z"/>
			<path style="fill:#188241;" d="M204.9,203l-170.3,6.8c0.4,0.9,0.7,1.8,1,2.7c1.3,3.7,3.3,7.7,4,11.8l167.3-6.7
				c-0.8-3.2-1.4-6.5-1.8-9.8C204.9,206.2,204.8,204.6,204.9,203z"/>
			<path style="fill:#67BBD5;" d="M39.9,226.4c0.2,4.3-0.9,8.4-1.9,12.6l172.7-6.9c-1.3-4.8-2.6-9.7-3.8-14.5l-167.3,6.7
				C39.8,225,39.9,225.7,39.9,226.4z"/>
			<path style="fill:#5D2B79;" d="M210.7,232.1L38,239c-0.2,0.9-0.4,1.8-0.6,2.8c-0.2,1.1-0.8,1.9-1.5,2.3c-0.6,3.2-1.7,6.3-2.4,9.5
				c0,0.1,0,0.2-0.1,0.3l180.4-7.2c-0.5-3.1-1.1-6.1-1.8-9.1C211.6,235.7,211.1,233.9,210.7,232.1z"/>
			<path style="fill:#D11A73;" d="M157.3,263.2c0.9-0.3,2-0.3,3,0.2l55.5-2.2c0.1-0.6,0.2-1.2,0.4-1.8c-0.4-2.6-1.5-5.2-1.7-7.6
				c-0.2-1.7-0.4-3.4-0.7-5.1l-180.4,7.2c-1.1,4.8-0.8,9.9,0.1,14.7l54.5-2.2c4.7-3.5,10.5-7,15.9-7.2c4.5-0.2,8.9,0.8,13.4,0.1
				c4.7-0.7,9.3-1.9,14.1-2.5c8.2-1.1,14.2,0.4,21.9,3.3C154.9,260.7,156.2,261.9,157.3,263.2z"/>
			<path style="fill:#F5CE29;" d="M78.1,275c1.8-1.9,3.7-3.7,5.7-5.4c1.2-1,2.6-2.1,4.1-3.2l-54.5,2.2c0.1,0.4,0.1,0.7,0.2,1.1
				c0.7,3.7,1,7.7,2,11.3c0.2,0.8,0.6,1.5,1,2.1l31.5-1.3C70.4,278.7,74.2,276.5,78.1,275z"/>
			<path style="fill:#F5CE29;" d="M160.6,263.6c2.2,1.2,4,2.8,5.9,4.3c1.6,0.9,3.2,1.9,4.8,2.8c0,0,0,0,0,0c2.3,1.1,4.7,1.9,7.1,2.6
				c7.3,2,14.9,3.1,22.5,2.1c6.6-0.9,12.4-2.4,14-9.7c0.3-1.4,0.6-2.9,0.9-4.3l-55.5,2.2C160.5,263.5,160.6,263.5,160.6,263.6z"/>
		</g>
	</g>
	<path style="fill:none;" d="M76.1,83.3c-18.1-6.4-35.1-9.4-47-8.7C6.7,75.8,3.1,79,8.6,103.2c3.6,16.5,15.1,36.9,20.9,41.4
		C44,125.1,61.6,102.8,76.1,83.3L76.1,83.3z"/>
	<path style="fill:none;" d="M47.1,210c-5.2,5.2-11.9,38.4-10.3,54.2c2.1,22.5,8.4,26.5,31.7,17.6c15.7-6.2,36.6-26.5,40.2-32.9
		C87.2,237.6,68.6,221.4,47.1,210L47.1,210z"/>
	<path style="fill:none;" d="M195.1,193.5c6.3,4,20.5,36.3,22.6,52.7c2.8,23.1-2.6,28.8-28.2,24.7c-17.3-2.7-43.2-18.6-48.2-24.2
		C160.6,230.5,175.8,209.9,195.1,193.5L195.1,193.5z"/>
	<path style="fill:none;" d="M208.9,140.2c9.6-10.4,21-30,23.9-40.4c6-21.9,0.7-29.1-22.8-27.9c-16.9,0.9-36.9,7.1-42.6,11.5
		C182.5,102.4,193.6,121.3,208.9,140.2L208.9,140.2z"/>
	<path style="fill:none;" d="M87.8,82C80.5,64.1,70.6,58.9,95,54.1c23.7-4.6,48.7-2.5,71,2.7c19,4.4,11.1,9.1,1.3,26.6
		C140.7,82.9,114.2,82.6,87.8,82L87.8,82z"/>
	<path style="fill:none;" d="M210.8,175.2c-3,49.1-46.6,86.4-97.4,83.2c-50.8-3.1-89.5-45.5-86.5-94.6c3-49.1,46.2-89,97.1-86.7
		C189.2,79.9,213.8,126.1,210.8,175.2z"/>
	<path style="opacity:0.53;" d="M180.6,96.2c14.3,18.1,19.9,42.2,18.3,67c-3,49.1-46.6,86.4-97.4,83.2c-21-1.3-39.9-9.3-54.7-21.7
		c15.7,19.1,39.4,32,66.5,33.6c50.8,3.1,94.4-34.1,97.4-83.2C212.7,144.4,203.7,114.7,180.6,96.2z"/>
	<path style="opacity:0.3;fill:#FFFFFF;" d="M37.6,172.6c3-49.1,46.2-89,97-86.7c21.3,0.9,38.3,6.5,51.4,15.2
		c-14.1-13.7-34.4-22.8-62.2-24c-50.8-2.2-94,37.7-97.1,86.7c-2,31.8,13.6,60.7,38.6,78C46.9,224.3,36,199.5,37.6,172.6z"/>
	<g>
		<path d="M127.2,68.6c-0.8-3.9,1.2-7.7,4.8-8.5l0,0c3.4-0.7,6.9,1.8,7.7,5.8l0,0c0.9,3.9-1.2,7.7-4.6,8.5l0,0l-0.1-0.6l-0.1-0.6
			c2.7-0.6,4.5-3.7,3.7-7.1l0,0c-0.8-3.4-3.7-5.5-6.3-4.9l0,0c-2.8,0.6-4.6,3.7-3.9,7.1l0,0c0.8,3.4,3.7,5.5,6.5,4.8l0,0l0.1,0.6
			l0.1,0.6C131.5,75.1,128,72.5,127.2,68.6L127.2,68.6z"/>
	</g>
	<path d="M134.3,60.5c2.3,0.6,4.1,2.5,4.7,5.3c0.8,3.6-1.1,6.9-4.1,7.5c-0.6,0.1-1.3,0.1-1.9,0.1c3.1-0.7,4.9-4.3,4.1-8.2
		C136.7,63.3,135.5,61.7,134.3,60.5L134.3,60.5z"/>
	<path d="M128.5,63.5c12.5-21.8,13.2-36.8,9.1-45.2c-2.1-4.5-5.8-6.9-9.2-7.3c-3.4-0.2-6.9,1.5-9.1,5.3c-3.6,6.4-3.9,17.9,4.5,35.2
		l-8.9,4.2c-9.9-20.7-9.2-35.5-4.1-44.4C115,4.2,122,0.8,129,1.3c6.8,0.6,13.5,4.8,17.5,12.9c5.1,10.7,4.8,29-9.5,54.2
		C133.8,72.6,125.8,68.5,128.5,63.5L128.5,63.5z"/>
	<path d="M204.1,143.8c0.1,0.3,0.1,0.5,0.2,0.8c2.2,9.9,2.8,20.4,2.2,31c-2.4,38.7-31.1,69.9-68.5,78c-8,1.8-16.5,2.4-25.2,1.9
		c-40.8-2.5-73.4-31.3-81.4-68.1c-1.6-7.3-2.2-15-1.7-22.8c0.2-3,0.5-6,1-8.9c-0.7-1.2-1.4-2.5-1.9-3.8c-1-2.5-1.9-5.1-2.7-7.7
		c-1.8,6.4-3,13.1-3.4,19.9c-0.5,8.5,0.1,16.8,1.9,24.7c8.7,39.9,44,70.9,87.9,73.6c9.3,0.6,18.4-0.2,27.1-2.1l0,0
		c40.3-8.8,71.4-42.4,74-84.5c0.7-11.3,0-22.4-2.3-33c-0.3-1.1-0.5-2.3-0.8-3.4C208.3,141.2,206.2,142.5,204.1,143.8z"/>
	<path d="M228.3,71c-4.9-1.9-11-2.3-18.9-1.9l0,0c-5.4,0.3-11.6,1.3-17.8,2.6c-5.5,1.2-11,2.7-15.9,4.2c0.7-1.1,1.3-2.1,1.9-3
		c1.8-3.3,3.3-6.2,2.6-9.7c-0.6-2.7-2.6-4.7-5-5.9c-2.4-1.3-5.3-2.2-9.2-3.1c-22.7-5.2-48.1-7.5-72.5-2.7c-0.9,0.2-1.7,0.3-2.5,0.5
		c-5.8,1.3-9.6,2.5-12.5,4.7c-1.4,1.1-2.5,2.6-3,4.2c-0.5,1.7-0.4,3.4-0.1,4.9c0.6,2.7,1.9,5.2,3.4,8.2c1.2,2.3,2.4,4.7,3.7,7.5
		c-0.9,0.4-1.8,0.8-2.7,1.2c-18.1-6.2-39.2-11.5-51.8-10.8c-5.2,0.3-9.5,0.6-13.1,1.4c-3,0.6-5.5,1.6-7.7,3.1
		C4,78.8,2.3,82.7,2.1,87c-0.3,4.4,0.5,9.5,2,16.2c0.1,0.5,0.2,1,0.3,1.5c1.8,8.4,5.8,17.8,10.1,25.8c3.7,7,7.5,12.9,10.9,16.5
		c-1.4,5.6-2.4,11.4-2.7,17.3c-0.5,8.5,0.2,16.7,1.9,24.7c1.9,8.8,5.1,17.1,9.4,24.8c0.3,0,0.5-0.1,0.8-0.1c2-0.2,4.4-0.4,5.6-1.2
		c0.2-0.1,0.5-0.3,0.7-0.4c-4.5-7.6-7.8-15.9-9.7-24.7c-1.6-7.3-2.2-14.9-1.7-22.7c0.4-6.1,1.4-12.1,3-17.8l0.6-2.1l-1.6-1.5
		c-2.4-2.1-6.9-8.5-10.9-16.2c-4.1-7.6-7.8-16.6-9.4-24.1c-0.1-0.5-0.2-1-0.3-1.4C9,93.1,8.6,87.6,9.5,84.9c0.4-1.4,1-2.1,1.9-2.8
		c1-0.7,2.6-1.4,5-1.9c2.9-0.6,6.9-1,12-1.3c10.7-0.7,28,3,45.7,9.3l1.4,0.5l1.3-0.6c2.7-1.3,6.8-3.4,9.7-4.4l3.6-2.2
		c-1.7-4.3-3.6-7.8-5.1-10.7c-1.5-2.9-2.5-5.2-2.8-6.5c-0.2-0.7-0.1-1.1-0.1-1.3c0.1-0.2,0.3-0.7,1.9-1.6c1.6-0.8,4.4-1.7,8.4-2.6
		c0.7-0.2,1.5-0.3,2.3-0.5c23-4.5,47.6-2.4,69.5,2.7c3.6,0.8,6.1,1.7,7.5,2.4c1.4,0.8,1.4,1.1,1.4,1.2c0.1,0.1-0.1,1.9-1.8,4.7
		c-1.6,2.8-4.3,6.6-7.5,11.5l-2,3.1l6.3,2c6.1-2.5,15.5-5.5,24.9-7.5c5.9-1.3,11.8-2.2,16.6-2.5l0,0c7.4-0.4,12.7,0.2,15.9,1.4
		c3.2,1.4,4.3,2.8,5.1,5.8c0.8,3.3,0.2,8.7-1.8,16.1c-2.5,9.3-15.1,30.7-24.3,40.6l-1.2,1.4l0.4,1.8c0.1,0.5,0.2,0.9,0.3,1.4
		c2.1,9.9,2.8,20.4,2.2,31c-0.7,11.3-3.6,21.9-8.3,31.5l-0.8,1.6l0.8,1.6c4.9,9.9,10.1,23.4,12.2,33.2c0.4,1.6,0.6,3.1,0.8,4.5
		c0.9,7.6,0.8,13-0.3,16.2c-0.6,1.6-1.2,2.6-2.2,3.4c-0.9,0.8-2.2,1.4-4.1,1.9c-3.7,0.8-9.5,0.6-17.6-0.7
		c-11.3-1.7-27.9-10.1-37.9-16.7l-1.4-0.9l-1.6,0.5c-2.7,0.9-5.4,1.6-8.2,2.2c-8,1.8-16.4,2.4-25.1,1.9c-3.5-0.2-7-0.7-10.4-1.3
		l-0.3,0c0.1,0.4,0.3,0.8,0.4,1.2c0.8,2.1,1.5,4.1,2,6.3c2.6,0.4,5.2,0.7,7.8,0.8c9.3,0.6,18.4-0.2,27-2.1c2.4-0.5,4.8-1.2,7.2-1.9
		c10.7,6.8,26.6,14.9,39.3,16.9c8.4,1.3,14.9,1.7,20.2,0.6l0,0c2.7-0.6,5.2-1.7,7.2-3.4c3-2.6,4.6-6.3,5.2-10.5
		c0.6-4.3,0.4-9.3-0.3-15.3c-0.2-1.6-0.5-3.3-0.9-5.1c-2.2-10.1-7.1-23-12-33.2c4.7-10,7.6-21,8.3-32.6c0.7-11.2,0-22.2-2.3-32.7
		c9.8-11.4,21.4-31.1,24.6-42.1c2.1-7.9,3-14.1,1.9-19.5C236.7,76.8,233.2,72.8,228.3,71z"/>
	<path d="M96,256.7c-0.2-0.2-0.4-0.3-0.6-0.5c-8.2,8.1-20.9,18.4-30.5,22.2c-4.4,1.7-8.1,2.9-11.2,3.5c-5.2,1.1-8.2,0.7-10-0.5
		c-1.8-1.1-3.4-3.8-4.5-9c-0.5-2.4-0.9-5.3-1.3-8.7c-0.8-7.2,0.5-19.4,2.6-30c0.8-4.3,1.8-8.4,2.8-11.8c-0.2-0.1-0.5-0.2-0.7-0.3
		c-2.3-1.1-3.8-3-4.9-5.2c-0.1,0.3-0.2,0.6-0.3,0.9c-4.1,12.9-7.7,34.4-6.4,47.2c0.3,3.5,0.8,6.7,1.4,9.5c1.3,5.9,3.4,10.6,7.5,13.3
		c4.2,2.7,9.3,2.8,15.3,1.5c3.6-0.8,7.6-2.1,12.2-3.9c8.6-3.4,17.9-10.2,25.7-17c3.4-3,6.5-5.9,9.1-8.6C100,258.9,97.8,258,96,256.7
		z"/>
	<g>
		<g>
			<path d="M114.1,79.9c0.1,0.5-14.2,1.2-30.9,6.6c-16.9,5.1-28.2,14.8-28.3,14.7c-0.5-0.1,9.4-12.7,27.2-18.1
				C99.6,77.5,114.2,79.9,114.1,79.9z"/>
		</g>
	</g>
	<g>
		<g>
			<path d="M145.7,81.6c-0.1,0.1,8.6-1.8,18.9,2.4c10.5,4.2,14.8,13.1,14.6,12.9c-0.4,0.3-6.7-6-16-9.6
				C154.1,83.5,145.6,82.2,145.7,81.6z"/>
		</g>
	</g>
	<g>
		<path d="M41.1,124.1c0.2,0.2-5.5,11-7.9,20.8c-3.1,9.5-4.6,13.6-4.9,13.6c-0.3,0-3.6-5.2-0.4-15.1C31,133.3,40.9,123.8,41.1,124.1
			z"/>
	</g>
	<g>
		<path d="M196.2,121.9c-0.2,0.2,5.4,11.1,7.7,20.9c3,9.6,4.5,13.7,4.7,13.6c0.3,0,3.7-5.2,0.6-15.1
			C206.1,131.2,196.4,121.6,196.2,121.9z"/>
	</g>
	<g>
		<g>
			<path style="fill:#FFFFFF;" d="M106,170.6c6.8,10.3,4,24.1-6.3,30.8c-10.3,6.8-25.6,5.2-32.3-5c-6.8-10.3-2.5-25.3,7.8-32.1
				C85.4,157.6,99.2,160.4,106,170.6z"/>
			<path d="M64.4,198.4c-2-3-3.1-6.3-3.6-9.6l0,0c-1.4-10.4,3.4-21.4,12.4-27.4l0,0c3.3-2.2,6.9-3.5,10.6-4l0,0
				c9.5-1.4,19.4,2.7,25.1,11.3l0,0l-2.9,1.9l2.9-1.9c2.2,3.3,3.5,6.9,4,10.6l0,0c1.4,9.5-2.7,19.4-11.3,25.1l0,0
				c-3.6,2.4-7.6,3.8-11.8,4.4l0,0C80.4,210.2,70.1,206.9,64.4,198.4L64.4,198.4z M77.1,167.3c-6.6,4.3-10.4,13-9.3,20.5l0,0
				c0.3,2.4,1.2,4.7,2.5,6.7l0,0c3.8,5.8,11.2,8.4,18.6,7.3l0,0c3.2-0.4,6.2-1.6,8.9-3.3l0,0c6.2-4.1,9.2-11.3,8.2-18.3l0,0
				c-0.4-2.7-1.3-5.3-2.9-7.7l0,0l0,0c-4.1-6.2-11.3-9.2-18.3-8.2l0,0C82.1,164.7,79.5,165.7,77.1,167.3L77.1,167.3z"/>
		</g>
		<path d="M95.8,183.9c-0.2,1.6-1.4,2.9-3.1,3.1c-2,0.3-3.8-1.1-4.1-3.1c-0.2-1.5,0.6-3,1.9-3.7c-0.6-0.1-1.1-0.1-1.7,0
			c-3.7,0.5-6.3,3.9-5.8,7.6c0.5,3.7,3.9,6.3,7.6,5.8c3.7-0.5,6.3-3.9,5.8-7.7C96.3,185.2,96.1,184.5,95.8,183.9z"/>
		<path style="opacity:0.25;" d="M99.2,193.9c-10.3,6.8-25.6,5.3-32.3-5c-1.6-2.4-2.6-5.2-3-8c-0.4,4.7,0.6,9.3,3.2,13.3
			c6.8,10.3,22.1,11.8,32.3,5c7.4-4.9,10.9-13.6,9.7-21.8C108.5,183.8,105.1,190,99.2,193.9z"/>
	</g>
	<g>
		<g>
			<path style="fill:#FFFFFF;" d="M119.1,176.6c-3.7,11.7,2.9,24.2,14.6,27.9c11.7,3.7,26-2,29.7-13.8c3.7-11.7-4.7-25-16.4-28.7
				C135.2,158.4,122.7,164.9,119.1,176.6z"/>
			<path d="M145.1,208.8c-4.1,0.6-8.4,0.3-12.5-1l0,0c-9.8-3.1-16.5-11.5-17.8-21l0,0c-0.5-3.7-0.2-7.5,0.9-11.3l0,0l0,0
				c3.1-9.8,11.5-16.5,21-17.8l0,0c3.7-0.5,7.5-0.2,11.3,0.9l0,0c10.2,3.3,18,12.5,19.5,22.9l0,0c0.5,3.4,0.3,6.9-0.8,10.3l0,0
				C163.6,201.5,154.6,207.5,145.1,208.8L145.1,208.8L145.1,208.8L145.1,208.8z M121.7,185.9c1,6.9,5.8,13,13,15.3l0,0
				c3,0.9,6.3,1.2,9.5,0.7l0,0c7.3-1,13.8-5.6,15.8-12.2l0,0c0.7-2.3,0.9-4.7,0.5-7.2l0,0c-1-7.5-7.1-14.9-14.6-17.1l0,0
				c-2.8-0.9-5.5-1.1-8.2-0.7l0,0c-6.9,1-13,5.8-15.3,13l0,0C121.6,180.4,121.4,183.2,121.7,185.9L121.7,185.9z"/>
		</g>
		<path d="M145.7,184.6c-0.2,1.6-1.4,2.9-3.1,3.1c-2,0.3-3.8-1.1-4.1-3.1c-0.2-1.5,0.6-3,1.9-3.7c-0.6-0.1-1.1-0.1-1.7,0
			c-3.7,0.5-6.3,3.9-5.8,7.6c0.5,3.7,4,6.3,7.7,5.8c3.7-0.5,6.3-3.9,5.8-7.7C146.2,186,146,185.3,145.7,184.6z"/>
		<path style="opacity:0.25;" d="M155.6,193.9c-10.3,6.8-25.6,5.2-32.3-5c-1.6-2.4-2.6-5.2-3-8c-0.4,4.7,0.6,9.3,3.2,13.3
			c6.8,10.2,22.1,11.8,32.3,5c7.4-4.9,10.9-13.6,9.7-21.8C164.9,183.9,161.5,190.1,155.6,193.9z"/>
	</g>
	<path style="opacity:0.53;" d="M206.7,141.7c14.3-16.7,33-45.9,26.2-63.6c-8.4,12.5-4.6,26.2-32.3,51.1
		C208.8,147.1,206.7,141.7,206.7,141.7z"/>
	<path style="opacity:0.53;" d="M94.3,259.3c-14.1,13.7-38.9,31.5-54.2,24.1c10.6-8,22.3-3.8,43.4-30.6
		C98.9,261.6,94.3,259.3,94.3,259.3z"/>
	<path style="opacity:0.53;" d="M202.7,211.5c9.1,17.8,23.1,59.2-1,62.2c4-11-13.4-27.3-36.5-25.1
		C177.9,236,202.7,211.5,202.7,211.5z"/>
</g>
</svg>
